<mxfile host="app.diagrams.net" modified="2024-02-16T07:27:28.363Z" agent="Mozilla/5.0 (Windows NT 10.0; Win64; x64) AppleWebKit/537.36 (KHTML, like Gecko) Chrome/121.0.0.0 Safari/537.36" etag="T9wGL9yNaCLGXVyR1_Fo" version="23.1.4" type="github">
  <diagram name="Страница — 1" id="qQ3Dj5i3-Ai6D21xNSfr">
    <mxGraphModel dx="1418" dy="713" grid="1" gridSize="10" guides="1" tooltips="1" connect="1" arrows="1" fold="1" page="1" pageScale="1" pageWidth="827" pageHeight="1169" math="0" shadow="0">
      <root>
        <mxCell id="0" />
        <mxCell id="1" parent="0" />
        <mxCell id="wqh7UMQdFFX-i4jyO4UI-11" style="edgeStyle=orthogonalEdgeStyle;rounded=0;orthogonalLoop=1;jettySize=auto;html=1;entryX=1;entryY=0.5;entryDx=0;entryDy=0;" parent="1" source="wqh7UMQdFFX-i4jyO4UI-2" target="wqh7UMQdFFX-i4jyO4UI-7" edge="1">
          <mxGeometry relative="1" as="geometry" />
        </mxCell>
        <mxCell id="wqh7UMQdFFX-i4jyO4UI-2" value="get_menu" style="whiteSpace=wrap;html=1;aspect=fixed;" parent="1" vertex="1">
          <mxGeometry x="490" y="120" width="80" height="80" as="geometry" />
        </mxCell>
        <mxCell id="wqh7UMQdFFX-i4jyO4UI-12" style="edgeStyle=orthogonalEdgeStyle;rounded=0;orthogonalLoop=1;jettySize=auto;html=1;exitX=0;exitY=0.5;exitDx=0;exitDy=0;entryX=1;entryY=0.5;entryDx=0;entryDy=0;" parent="1" source="wqh7UMQdFFX-i4jyO4UI-3" target="wqh7UMQdFFX-i4jyO4UI-8" edge="1">
          <mxGeometry relative="1" as="geometry" />
        </mxCell>
        <mxCell id="wqh7UMQdFFX-i4jyO4UI-3" value="get_menu" style="whiteSpace=wrap;html=1;aspect=fixed;" parent="1" vertex="1">
          <mxGeometry x="490" y="280" width="80" height="80" as="geometry" />
        </mxCell>
        <mxCell id="wqh7UMQdFFX-i4jyO4UI-13" style="edgeStyle=orthogonalEdgeStyle;rounded=0;orthogonalLoop=1;jettySize=auto;html=1;" parent="1" source="wqh7UMQdFFX-i4jyO4UI-4" target="wqh7UMQdFFX-i4jyO4UI-9" edge="1">
          <mxGeometry relative="1" as="geometry" />
        </mxCell>
        <mxCell id="wqh7UMQdFFX-i4jyO4UI-4" value="get_menu" style="whiteSpace=wrap;html=1;aspect=fixed;" parent="1" vertex="1">
          <mxGeometry x="490" y="440" width="80" height="80" as="geometry" />
        </mxCell>
        <mxCell id="S0_dRdWw1GMZchleznMw-18" style="edgeStyle=orthogonalEdgeStyle;rounded=0;orthogonalLoop=1;jettySize=auto;html=1;entryX=1;entryY=0.5;entryDx=0;entryDy=0;" edge="1" parent="1" source="wqh7UMQdFFX-i4jyO4UI-6" target="wqh7UMQdFFX-i4jyO4UI-2">
          <mxGeometry relative="1" as="geometry">
            <Array as="points">
              <mxPoint x="740" y="160" />
            </Array>
          </mxGeometry>
        </mxCell>
        <mxCell id="S0_dRdWw1GMZchleznMw-19" style="edgeStyle=orthogonalEdgeStyle;rounded=0;orthogonalLoop=1;jettySize=auto;html=1;" edge="1" parent="1" source="wqh7UMQdFFX-i4jyO4UI-6" target="wqh7UMQdFFX-i4jyO4UI-3">
          <mxGeometry relative="1" as="geometry" />
        </mxCell>
        <mxCell id="S0_dRdWw1GMZchleznMw-20" style="edgeStyle=orthogonalEdgeStyle;rounded=0;orthogonalLoop=1;jettySize=auto;html=1;entryX=1;entryY=0.5;entryDx=0;entryDy=0;" edge="1" parent="1" source="wqh7UMQdFFX-i4jyO4UI-6" target="wqh7UMQdFFX-i4jyO4UI-4">
          <mxGeometry relative="1" as="geometry">
            <Array as="points">
              <mxPoint x="745" y="480" />
            </Array>
          </mxGeometry>
        </mxCell>
        <mxCell id="wqh7UMQdFFX-i4jyO4UI-6" value="Балансировщик&amp;nbsp;" style="whiteSpace=wrap;html=1;aspect=fixed;" parent="1" vertex="1">
          <mxGeometry x="690" y="280" width="110" height="110" as="geometry" />
        </mxCell>
        <mxCell id="wqh7UMQdFFX-i4jyO4UI-7" value="Бандит" style="whiteSpace=wrap;html=1;aspect=fixed;" parent="1" vertex="1">
          <mxGeometry x="210" y="120" width="80" height="80" as="geometry" />
        </mxCell>
        <mxCell id="wqh7UMQdFFX-i4jyO4UI-8" value="Бандит" style="whiteSpace=wrap;html=1;aspect=fixed;" parent="1" vertex="1">
          <mxGeometry x="210" y="280" width="80" height="80" as="geometry" />
        </mxCell>
        <mxCell id="wqh7UMQdFFX-i4jyO4UI-9" value="Бандит" style="whiteSpace=wrap;html=1;aspect=fixed;" parent="1" vertex="1">
          <mxGeometry x="210" y="440" width="80" height="80" as="geometry" />
        </mxCell>
        <mxCell id="S0_dRdWw1GMZchleznMw-9" value="" style="edgeStyle=orthogonalEdgeStyle;rounded=0;orthogonalLoop=1;jettySize=auto;html=1;" edge="1" parent="1" source="wqh7UMQdFFX-i4jyO4UI-15" target="S0_dRdWw1GMZchleznMw-1">
          <mxGeometry relative="1" as="geometry" />
        </mxCell>
        <mxCell id="wqh7UMQdFFX-i4jyO4UI-15" value="Сервис, который фоном считает reward и отправляет в сервисы с бандитами" style="whiteSpace=wrap;html=1;aspect=fixed;" parent="1" vertex="1">
          <mxGeometry x="394" y="585" width="110" height="110" as="geometry" />
        </mxCell>
        <mxCell id="S0_dRdWw1GMZchleznMw-10" style="edgeStyle=orthogonalEdgeStyle;rounded=0;orthogonalLoop=1;jettySize=auto;html=1;entryX=0;entryY=0.5;entryDx=0;entryDy=0;" edge="1" parent="1" source="S0_dRdWw1GMZchleznMw-1">
          <mxGeometry relative="1" as="geometry">
            <mxPoint x="60" y="320" as="targetPoint" />
            <Array as="points">
              <mxPoint x="30" y="640" />
              <mxPoint x="30" y="320" />
            </Array>
          </mxGeometry>
        </mxCell>
        <mxCell id="S0_dRdWw1GMZchleznMw-12" value="Text" style="edgeLabel;html=1;align=center;verticalAlign=middle;resizable=0;points=[];" vertex="1" connectable="0" parent="S0_dRdWw1GMZchleznMw-10">
          <mxGeometry x="0.8125" y="-1" relative="1" as="geometry">
            <mxPoint as="offset" />
          </mxGeometry>
        </mxCell>
        <mxCell id="S0_dRdWw1GMZchleznMw-1" value="Memcached" style="whiteSpace=wrap;html=1;aspect=fixed;" vertex="1" parent="1">
          <mxGeometry x="210" y="600" width="80" height="80" as="geometry" />
        </mxCell>
        <mxCell id="S0_dRdWw1GMZchleznMw-8" style="edgeStyle=orthogonalEdgeStyle;rounded=0;orthogonalLoop=1;jettySize=auto;html=1;entryX=1;entryY=0.5;entryDx=0;entryDy=0;" edge="1" parent="1" source="S0_dRdWw1GMZchleznMw-2" target="wqh7UMQdFFX-i4jyO4UI-15">
          <mxGeometry relative="1" as="geometry" />
        </mxCell>
        <mxCell id="S0_dRdWw1GMZchleznMw-2" value="" style="shape=cylinder3;whiteSpace=wrap;html=1;boundedLbl=1;backgroundOutline=1;size=15;" vertex="1" parent="1">
          <mxGeometry x="610" y="600" width="60" height="80" as="geometry" />
        </mxCell>
        <mxCell id="S0_dRdWw1GMZchleznMw-3" value="Таблица&amp;nbsp;&lt;br&gt;session_id&lt;br&gt;arm_id" style="whiteSpace=wrap;html=1;aspect=fixed;" vertex="1" parent="1">
          <mxGeometry x="740" y="600" width="80" height="80" as="geometry" />
        </mxCell>
        <mxCell id="S0_dRdWw1GMZchleznMw-5" style="edgeStyle=orthogonalEdgeStyle;rounded=0;orthogonalLoop=1;jettySize=auto;html=1;" edge="1" parent="1" source="S0_dRdWw1GMZchleznMw-4" target="S0_dRdWw1GMZchleznMw-3">
          <mxGeometry relative="1" as="geometry" />
        </mxCell>
        <mxCell id="S0_dRdWw1GMZchleznMw-4" value="Таблица&amp;nbsp;&lt;br&gt;session_id&lt;br&gt;GP" style="whiteSpace=wrap;html=1;aspect=fixed;" vertex="1" parent="1">
          <mxGeometry x="740" y="720" width="80" height="80" as="geometry" />
        </mxCell>
        <mxCell id="S0_dRdWw1GMZchleznMw-6" value="LEFT JOIN" style="text;html=1;align=center;verticalAlign=middle;whiteSpace=wrap;rounded=0;" vertex="1" parent="1">
          <mxGeometry x="820" y="680" width="60" height="30" as="geometry" />
        </mxCell>
        <mxCell id="S0_dRdWw1GMZchleznMw-7" style="edgeStyle=orthogonalEdgeStyle;rounded=0;orthogonalLoop=1;jettySize=auto;html=1;entryX=1;entryY=0.5;entryDx=0;entryDy=0;entryPerimeter=0;" edge="1" parent="1" source="S0_dRdWw1GMZchleznMw-3" target="S0_dRdWw1GMZchleznMw-2">
          <mxGeometry relative="1" as="geometry" />
        </mxCell>
        <mxCell id="S0_dRdWw1GMZchleznMw-14" style="edgeStyle=orthogonalEdgeStyle;rounded=0;orthogonalLoop=1;jettySize=auto;html=1;entryX=0;entryY=0.5;entryDx=0;entryDy=0;" edge="1" parent="1" target="wqh7UMQdFFX-i4jyO4UI-7">
          <mxGeometry relative="1" as="geometry">
            <mxPoint x="90" y="280" as="sourcePoint" />
            <Array as="points">
              <mxPoint x="90" y="160" />
            </Array>
          </mxGeometry>
        </mxCell>
        <mxCell id="S0_dRdWw1GMZchleznMw-15" style="edgeStyle=orthogonalEdgeStyle;rounded=0;orthogonalLoop=1;jettySize=auto;html=1;" edge="1" parent="1" target="wqh7UMQdFFX-i4jyO4UI-8">
          <mxGeometry relative="1" as="geometry">
            <mxPoint x="140" y="320" as="sourcePoint" />
          </mxGeometry>
        </mxCell>
        <mxCell id="S0_dRdWw1GMZchleznMw-16" value="" style="ellipse;whiteSpace=wrap;html=1;aspect=fixed;" vertex="1" parent="1">
          <mxGeometry x="60" y="280" width="80" height="80" as="geometry" />
        </mxCell>
        <mxCell id="S0_dRdWw1GMZchleznMw-17" style="edgeStyle=orthogonalEdgeStyle;rounded=0;orthogonalLoop=1;jettySize=auto;html=1;entryX=-0.05;entryY=0.638;entryDx=0;entryDy=0;entryPerimeter=0;" edge="1" parent="1" source="S0_dRdWw1GMZchleznMw-16" target="wqh7UMQdFFX-i4jyO4UI-9">
          <mxGeometry relative="1" as="geometry">
            <Array as="points">
              <mxPoint x="100" y="491" />
            </Array>
          </mxGeometry>
        </mxCell>
        <mxCell id="S0_dRdWw1GMZchleznMw-22" style="edgeStyle=orthogonalEdgeStyle;rounded=0;orthogonalLoop=1;jettySize=auto;html=1;entryX=1;entryY=0.5;entryDx=0;entryDy=0;" edge="1" parent="1" source="S0_dRdWw1GMZchleznMw-21" target="wqh7UMQdFFX-i4jyO4UI-6">
          <mxGeometry relative="1" as="geometry" />
        </mxCell>
        <mxCell id="S0_dRdWw1GMZchleznMw-21" value="Киоски" style="whiteSpace=wrap;html=1;aspect=fixed;" vertex="1" parent="1">
          <mxGeometry x="910" y="295" width="80" height="80" as="geometry" />
        </mxCell>
      </root>
    </mxGraphModel>
  </diagram>
</mxfile>
